<svg xmlns="http://www.w3.org/2000/svg" viewBox="0 0 400 400"><rect width="400" height="400" fill="#000"/><g transform="translate(-5 -35) scale(1.24)" fill="none" stroke="#fff" stroke-width="9" stroke-miterlimit="10"><g transform="translate(-100 -95)"><path d="M315.7,254.7c.3-1.2,7.7-12.3,9-14,8.8-10.9,22.5-19.6,35.9-23.5l8.1,20c-10.4,1.9-21.9,7-29,15,10.5.6,24.7,2.1,30.4,12.1.7,1.2,3.6,7.8,3.6,8.4v26.5h33v-41h22v58h-154v-88h20.5l1.5,1.5v69.5h55v-20.5c0-4.1-10-9.5-13.5-9.5h-22.5c.6-4.2-.9-10.6,0-14.5Z"/><path d="M203.7,250.2v49h28v-41h21v58h-81.5c-11.6,0-26-11.1-28.1-22.9-4.2-24.1,17.8-35.2,38.6-35v-8s22,0,22,0ZM181.7,275.2c-22.9-.9-23,25.7,0,24v-24Z"/><path d="M239.4,222.4c14.9-3.3,15.1,19.3,2.8,19.3-11.1,0-12.2-17.2-2.8-19.3Z"/><path d="M425.4,221.4c16.6-3.8,14.2,23-.5,17-7-2.9-6.7-15.4.5-17Z"/><path d="M402.4,221.4c14.8-3.4,13.9,14.9,6.3,17.3-12.7,4-14.7-15.4-6.3-17.3Z"/><line x1="446.2" y1="325.1" x2="411.1" y2="344.7"/></g></g></svg>